<svg width="15" height="20" viewBox="0 0 15 20" fill="none" xmlns="http://www.w3.org/2000/svg">
<path d="M1.32589 1.42937C1.84458 0.824247 2.52964 0.501824 3.22481 0.5H11.7752C12.4704 0.501824 13.1554 0.824248 13.6741 1.42937C14.1948 2.0369 14.4983 2.87466 14.5 3.76189C14.5 3.76207 14.5 3.76224 14.5 3.76242L14.5 17.7308V17.7314C14.5005 18.0738 14.4188 18.4055 14.2691 18.6886L14.2691 18.6886C14.1195 18.9715 13.9112 19.1889 13.6759 19.3262L13.6759 19.3262C13.442 19.4626 13.1872 19.5169 12.9377 19.4904L12.9376 19.4904C12.6876 19.4639 12.44 19.3559 12.2244 19.1666L12.2235 19.1658L8.20483 15.6543L8.203 15.6527C8.01006 15.4857 7.76448 15.3865 7.50165 15.3865C7.23882 15.3865 6.99324 15.4857 6.8003 15.6527L6.79843 15.6543L2.77645 19.1697L2.77594 19.1701C2.56001 19.3594 2.3122 19.4673 2.06204 19.4936C1.81238 19.5199 1.55735 19.4653 1.32335 19.3285C1.08805 19.191 0.879687 18.9731 0.730212 18.6899C0.580653 18.4065 0.499257 18.0744 0.500006 17.7319V17.7308V3.76199C0.501656 2.87471 0.805149 2.03692 1.32589 1.42937ZM1.32589 1.42937L0.946842 1.10447L1.32589 1.42937Z" stroke="white"/>
</svg>
